<svg xmlns="http://www.w3.org/2000/svg" viewBox="0 0 32 32">
  <rect width="32" height="32" rx="6" fill="#09090b"/>
  <path d="M16 4c-1.5 0-2.8 1.2-4 3.5C10.5 10 10 13 10 16c0 3 .5 6 2 8.5 1.2 2.3 2.5 3.5 4 3.5s2.8-1.2 4-3.5c1.5-2.5 2-5.5 2-8.5 0-3-.5-6-2-8.5C18.8 5.2 17.5 4 16 4z" fill="#6366f1" opacity="0.3"/>
  <path d="M16 6c-1 0-2 1-3 3-1.2 2.3-1.5 5-1.5 7s.3 4.7 1.5 7c1 2 2 3 3 3s2-1 3-3c1.2-2.3 1.5-5 1.5-7s-.3-4.7-1.5-7c-1-2-2-3-3-3z" fill="#6366f1" opacity="0.5"/>
  <path d="M16 8c-.8 0-1.5.8-2.2 2.2-.8 1.7-1.3 4-1.3 5.8 0 1.8.5 4.1 1.3 5.8.7 1.4 1.4 2.2 2.2 2.2s1.5-.8 2.2-2.2c.8-1.7 1.3-4 1.3-5.8 0-1.8-.5-4.1-1.3-5.8C17.5 8.8 16.8 8 16 8z" fill="#6366f1"/>
</svg>
